# xmcd
#
# Track frame offsets:
#	150
#	19831
#	35069
#	54022
#	67018
#	79189
#	92556
#	104461
#	116632
#	126212
#	140884
#	151920
#	166599
#	179871
#	194574
#	209399
#
# Disc length: 2934 seconds
#
# Revision: 1
# Processed by: cddbd v1.5.1PL2 Copyright (c) Steve Scherf et al.
# Submitted via: audiograbber 1.83.01
#
DISCID=e60b7410
DTITLE=Misc. - Country Hits (Vol. 1)
DYEAR=2003
DGENRE=Country
TTITLE0=The Malvericks - Dance The Night Away
TTITLE1=Billy Ray Cyrus - Achy Breaky Heart
TTITLE2=Lee Towers - Me and Bobby McGeee
TTITLE3=Tumbleweeds - Somewhere Between
TTITLE4=Freddy Fender - Wasted Days And Wasted Nights
TTITLE5=Kenny Rogers - Ruby, Don't Take Your Love To Town
TTITLE6=Frankie Lane - High Noon (Do Not Forsake Me)
TTITLE7=Don Williams - Falling In Love Again
TTITLE8=Patsy Cline - True Love
TTITLE9=Johnny Cash - Goin'By The Book
TTITLE10=Roger Miller - King Of The Road
TTITLE11=John Schneider - Take The Long Way Home
TTITLE12=Carl Perkins - Going to Memphis
TTITLE13=Rita Coolidge - I'll Be Your Baby Tonight
TTITLE14=Roger Whittaker - I Don't Belive In If Anymore
TTITLE15=Connie Francis - You Always Hurt The One You Love
EXTD=
EXTT0=
EXTT1=
EXTT2=
EXTT3=
EXTT4=
EXTT5=
EXTT6=
EXTT7=
EXTT8=
EXTT9=
EXTT10=
EXTT11=
EXTT12=
EXTT13=
EXTT14=
EXTT15=
PLAYORDER=
